<?xml version="1.0" standalone="no"?><svg xmlns="http://www.w3.org/2000/svg" viewBox="0 0 1440 320"><path fill="#4DC885" fill-opacity="1" d="M0,192L21.8,186.7C43.6,181,87,171,131,181.3C174.5,192,218,224,262,218.7C305.5,213,349,171,393,170.7C436.4,171,480,213,524,202.7C567.3,192,611,128,655,106.7C698.2,85,742,107,785,128C829.1,149,873,171,916,197.3C960,224,1004,256,1047,245.3C1090.9,235,1135,181,1178,170.7C1221.8,160,1265,192,1309,192C1352.7,192,1396,160,1418,144L1440,128L1440,320L1418.2,320C1396.4,320,1353,320,1309,320C1265.5,320,1222,320,1178,320C1134.5,320,1091,320,1047,320C1003.6,320,960,320,916,320C872.7,320,829,320,785,320C741.8,320,698,320,655,320C610.9,320,567,320,524,320C480,320,436,320,393,320C349.1,320,305,320,262,320C218.2,320,175,320,131,320C87.3,320,44,320,22,320L0,320Z"></path></svg>